# xmcd
#
# Track frame offsets: 
#        150
#        17195
#        36048
#        59434
#        77900
#        95170
#        110923
#        137354
#        157722
#        181019
#        204446
#        224457
#        247749
#
# Disc length: 3610 seconds
#
# Revision: 0
# Processed by: cddbd v1.5.2PL0 Copyright (c) Steve Scherf et al.
# Submitted via: ExactAudioCopy v0.99pb3
#
DISCID=a90e180d
DTITLE=Karen Lovely - Still The Rain
DYEAR=2010
DGENRE=Blues
TTITLE0=Blues Ain't Far Behind
TTITLE1=Sunny Weather
TTITLE2=Still The Rain
TTITLE3=Cold Man Cold
TTITLE4=Other Plans
TTITLE5=Ask Your Heart
TTITLE6=Full Time Job
TTITLE7=Glad You're Gone
TTITLE8=Never Felt No Blues
TTITLE9=I've Had Enough
TTITLE10=Older Fool
TTITLE11=Knock Knock
TTITLE12=So Willing
EXTD=
EXTT0=
EXTT1=
EXTT2=
EXTT3=
EXTT4=
EXTT5=
EXTT6=
EXTT7=
EXTT8=
EXTT9=
EXTT10=
EXTT11=
EXTT12=
PLAYORDER=
